<?xml version="1.0" encoding="UTF-8" standalone="no"?>
<svg
   xmlns:dc="http://purl.org/dc/elements/1.1/"
   xmlns:cc="http://creativecommons.org/ns#"
   xmlns:rdf="http://www.w3.org/1999/02/22-rdf-syntax-ns#"
   xmlns:svg="http://www.w3.org/2000/svg"
   xmlns="http://www.w3.org/2000/svg"
   viewBox="0 0 966.08002 138.96001"
   height="138.96001"
   width="966.08002"
   xml:space="preserve"
   id="svg2"
   version="1.1"><metadata
     id="metadata8"><rdf:RDF><cc:Work
         rdf:about=""><dc:format>image/svg+xml</dc:format><dc:type
           rdf:resource="http://purl.org/dc/dcmitype/StillImage" /></cc:Work></rdf:RDF></metadata><defs
     id="defs6"><clipPath
       id="clipPath20"
       clipPathUnits="userSpaceOnUse"><path
         id="path18"
         d="M 0,0 H 7245.64 V 1042 H 0 Z" /></clipPath></defs><g
     transform="matrix(1.3333333,0,0,-1.3333333,0,138.96)"
     id="g10"><g
       transform="scale(0.1)"
       id="g12"><g
         id="g14"><g
           clip-path="url(#clipPath20)"
           id="g16"><path
             id="path22"
             style="fill:#211d1d;fill-opacity:1;fill-rule:nonzero;stroke:none"
             d="m 1609.01,576.602 h 17.01 c -17.97,-61.563 -62.9,-92.36 -134.8,-92.36 -46.21,0 -85.19,15.727 -116.72,47.184 -31.58,31.426 -47.36,73.047 -47.36,124.812 0,53.102 17.03,96.168 51.09,129.203 34.08,33.004 74.38,49.528 120.88,49.528 27.98,0 53.73,-6.125 77.23,-18.438 23.57,-12.273 35.35,-27.261 35.35,-44.957 0,-6.629 -2.24,-12.832 -6.62,-18.636 -4.32,-5.805 -10.6,-8.715 -18.76,-8.715 -17.48,0 -28.18,10.164 -32.14,30.504 -3.17,15.336 -8.01,26.031 -14.62,32.093 -6.89,6.102 -20.22,9.118 -40.04,9.118 -35.4,0 -62.03,-12.27 -79.89,-36.833 -17.8,-24.589 -26.73,-61.558 -26.73,-110.976 0,-50.984 9.62,-90.883 28.79,-119.695 19.23,-28.797 48.25,-43.157 87.2,-43.157 52.42,0 85.8,23.77 100.13,71.325" /><path
             id="path24"
             style="fill:#211d1d;fill-opacity:1;fill-rule:nonzero;stroke:none"
             d="m 1881.8,768.391 c 15.88,22.203 33.61,38.832 53.31,49.933 19.65,11.11 41.25,16.645 64.77,16.645 26.7,0 48.83,-5.535 66.39,-16.645 17.54,-11.101 29,-24.777 34.27,-41.004 5.31,-16.281 7.89,-42.609 7.89,-79.078 v -89.539 c 0,-38.058 0.78,-61.156 2.24,-69.363 1.46,-8.188 5.74,-14.195 12.86,-18.016 7.13,-3.84 20.31,-5.761 39.63,-5.761 v -18.227 h -167.64 v 18.227 h 7.58 c 19.21,0 31.69,2.734 37.42,8.3 5.67,5.532 8.99,12.11 9.88,19.657 0.95,7.496 1.4,29.253 1.4,65.183 v 97.485 c 0,26.949 -1.57,46.867 -4.72,59.835 -3.19,12.938 -10.68,23.653 -22.38,32.102 -11.83,8.461 -26.51,12.672 -44.21,12.672 -20.61,0 -39.12,-6 -55.49,-18.055 -16.4,-11.976 -30.77,-30.019 -43.2,-54.062 V 608.703 c 0,-36.48 0.59,-58.945 1.77,-67.394 1.21,-8.465 5.25,-14.868 12.11,-19.192 6.85,-4.387 19.41,-6.554 37.63,-6.554 v -18.227 h -164.82 v 18.227 h 8.27 c 19.06,0 31.4,2.707 37.07,8.144 5.69,5.379 9.01,11.887 9.94,19.387 0.93,7.551 1.38,29.394 1.38,65.609 v 323.34 c 0,32.781 -3.12,53.516 -9.34,62.207 -6.19,8.74 -21.04,13.09 -44.57,13.09 v 18.22 c 40.94,0 75.04,5.55 102.27,16.65 h 8.29 V 768.391" /><path
             id="path26"
             style="fill:#211d1d;fill-opacity:1;fill-rule:nonzero;stroke:none"
             d="m 2537.15,695.473 -43.34,-17.422 c -68.35,-27.754 -102.52,-62.61 -102.52,-104.633 0,-16.637 4.38,-30.063 13.12,-40.203 8.77,-10.207 20.11,-15.266 34.16,-15.266 12.44,0 26.89,4.063 43.33,12.25 16.41,8.199 34.86,20.5 55.25,36.883 z m 114.68,-138.692 h 14.51 c -2.37,-45.168 -24.56,-67.793 -66.4,-67.793 -17.9,0 -32.07,4.774 -42.46,14.27 -10.41,9.519 -17.19,23.66 -20.33,42.43 -26.48,-18.77 -50.66,-32.911 -72.45,-42.43 -21.86,-9.496 -41.43,-14.27 -58.6,-14.27 -21.96,0 -40.9,6.352 -56.78,19.032 -15.87,12.683 -23.84,29.468 -23.84,50.355 0,27.188 13.34,50.965 39.94,71.328 26.55,20.348 63.33,40.152 110.17,59.445 l 61.56,24.95 v 15.855 c 0,22.453 -1.52,38.703 -4.4,48.75 -2.92,10.039 -10.45,19.024 -22.68,26.942 -12.1,7.921 -28.19,11.898 -48.08,11.898 -39.73,0 -61.82,-13.23 -66.34,-39.633 -4.25,-26.949 -15.34,-40.437 -33.3,-40.437 -16.1,0 -24.14,7.668 -24.14,22.996 0,15.039 10.69,31.234 32.05,48.551 21.43,17.285 54.73,25.949 99.87,25.949 33.55,0 59.59,-5.278 78.13,-15.848 18.49,-10.578 30.69,-22.594 36.62,-36.082 5.94,-13.465 8.92,-34.066 8.92,-61.789 V 590.066 c 0,-30.664 1.57,-50.359 4.78,-59.082 3.18,-8.711 10.05,-13.035 20.68,-13.035 17.49,0 28.36,12.949 32.57,38.832" /><path
             id="path28"
             style="fill:#211d1d;fill-opacity:1;fill-rule:nonzero;stroke:none"
             d="m 2923.02,752.156 c 8.97,23.5 23.54,43.176 43.77,59.043 20.2,15.836 39.96,23.77 59.27,23.77 17.41,0 31.18,-5.43 41.19,-16.239 10.02,-10.832 15.06,-21.929 15.06,-33.289 0,-7.656 -2.62,-14.265 -7.72,-19.808 -5.16,-5.563 -11.49,-8.344 -18.87,-8.344 -13.2,0 -23.21,9.781 -30.11,29.328 -4.76,13.223 -11.86,19.824 -21.43,19.824 -11.31,0 -24.89,-7.703 -40.74,-23.199 -15.84,-15.41 -26.06,-31.48 -30.57,-48.137 -4.48,-16.66 -6.7,-39.496 -6.7,-68.562 v -57.84 c 0,-34.609 0.44,-56.43 1.37,-65.387 0.95,-8.988 4.72,-15.867 11.34,-20.628 6.71,-4.739 18.49,-7.125 35.54,-7.125 h 11.19 v -18.227 h -172.43 v 18.227 h 8.38 c 15.84,0 27.14,2.167 33.84,6.554 6.77,4.324 10.81,10.473 12.17,18.383 1.29,7.934 1.92,30.668 1.92,68.203 v 91.539 c 0,34.863 -0.42,56.727 -1.37,65.559 -0.93,8.863 -4.72,15.75 -11.3,20.613 -6.6,4.914 -18.34,7.344 -35.26,7.344 h -8.38 v 17.832 c 24.73,2.906 57.14,10.683 97.16,23.379 7.66,-20.871 11.89,-48.481 12.68,-82.813" /><path
             id="path30"
             style="fill:#211d1d;fill-opacity:1;fill-rule:nonzero;stroke:none"
             d="m 3252.2,1000.62 c 0,11.36 3.98,21.12 12.08,29.3 8.02,8.21 17.73,12.29 29.11,12.29 11.36,0 21.01,-4.08 28.95,-12.29 7.88,-8.18 11.88,-17.94 11.88,-29.3 0,-11.647 -4,-21.526 -11.88,-29.733 -7.94,-8.176 -17.59,-12.289 -28.95,-12.289 -11.38,0 -21.09,4.113 -29.11,12.289 -8.1,8.207 -12.08,18.086 -12.08,29.733 z m 76.44,-165.651 V 608.703 c 0,-34.609 0.55,-56.43 1.58,-65.387 1.06,-8.988 4.91,-15.867 11.51,-20.628 6.62,-4.739 18.36,-7.125 35.29,-7.125 h 8.27 v -18.227 h -174.74 v 18.227 h 13.46 c 18.78,0 31.03,2.707 36.68,8.144 5.69,5.379 8.95,11.887 9.9,19.387 0.91,7.551 1.4,29.394 1.4,65.609 v 98.266 c 0,38.035 -1.78,61.304 -5.33,69.734 -3.63,8.465 -8.34,13.754 -14.27,15.867 -5.96,2.106 -16.31,3.164 -31.13,3.164 h -10.71 v 18.215 c 47.01,4.781 83.54,11.766 109.41,21.02 h 8.68" /><path
             id="path32"
             style="fill:#211d1d;fill-opacity:1;fill-rule:nonzero;stroke:none"
             d="m 3737.11,804.07 h -97.9 V 607.914 c 0,-30.117 1.35,-50.402 4,-60.84 2.64,-10.414 8.25,-18.832 16.84,-25.176 8.61,-6.335 17.75,-9.507 27.52,-9.507 19.06,0 35.57,10.828 49.54,32.5 l 12.68,-7.559 c -8.17,-17.426 -20.25,-30.551 -36.24,-39.418 -16.02,-8.816 -32.16,-13.25 -48.55,-13.25 -19.04,0 -35.73,5.582 -50.16,16.848 -14.34,11.191 -23.35,24.359 -26.93,39.426 -3.53,15.05 -5.35,41.468 -5.35,79.234 V 804.07 h -46.99 v 18.016 c 21.64,0.504 41.02,9.652 58.18,27.348 17.13,17.699 28.1,42.546 32.77,74.531 h 12.69 V 822.273 h 97.9 V 804.07" /><path
             id="path34"
             style="fill:#211d1d;fill-opacity:1;fill-rule:nonzero;stroke:none"
             d="m 4074.87,558.758 75.67,180.195 c 10.86,26.469 16.23,41.18 16.23,44.074 0,13.215 -14.74,20.11 -44.19,20.641 v 18.215 h 114.15 v -18.215 c -17.71,-0.816 -30.63,-5.48 -38.82,-14.078 -8.23,-8.582 -18.38,-27.543 -30.55,-56.852 L 4022.37,383.742 c -13.71,-33.34 -25.88,-56.023 -36.43,-68.051 -10.6,-12.058 -22.23,-18.078 -34.95,-18.078 -17.18,0 -25.72,7.828 -25.72,23.407 0,18.023 13.7,33.289 41.1,45.695 16.1,7.183 26.83,13.265 32.24,18.289 5.4,5.016 10.79,14.164 16.06,27.32 l 31.03,77.086 -121.68,261.551 c -10.77,22.973 -19.78,37.5 -26.93,43.59 -7.11,6.078 -19.25,9.117 -36.43,9.117 v 18.215 h 148.99 v -18.215 c -26.19,-0.816 -39.22,-6.219 -39.22,-16.258 0,-3.969 5.14,-16.914 15.47,-38.832 l 88.97,-189.82" /><path
             id="path36"
             style="fill:#211d1d;fill-opacity:1;fill-rule:nonzero;stroke:none"
             d="m 4410.12,527.039 c 0,11.613 4.18,21.606 12.54,29.941 8.29,8.305 18.3,12.493 29.89,12.493 11.91,0 22.02,-4.188 30.32,-12.493 8.35,-8.335 12.5,-18.328 12.5,-29.941 0,-11.891 -4.21,-21.992 -12.65,-30.285 -8.47,-8.356 -18.49,-12.512 -30.17,-12.512 -11.89,0 -21.92,4.313 -30.1,12.891 -8.17,8.609 -12.33,18.543 -12.33,29.906 z m 0,274.641 c 0,11.359 4.08,21.355 12.14,29.902 8.06,8.621 18.15,12.902 30.29,12.902 11.91,0 22.02,-4.187 30.32,-12.461 8.35,-8.367 12.5,-18.457 12.5,-30.343 0,-11.617 -4.21,-21.621 -12.65,-29.922 -8.47,-8.317 -18.49,-12.473 -30.17,-12.473 -11.89,0 -21.92,4.231 -30.1,12.668 -8.17,8.465 -12.33,18.367 -12.33,29.727" /><path
             id="path38"
             style="fill:#211d1d;fill-opacity:1;fill-rule:nonzero;stroke:none"
             d="m 5373.36,484.242 h -18.07 l -96.72,257.602 -98.96,-257.602 h -16.59 l -99.83,257.887 c -11.36,29.383 -19.82,46.984 -25.36,52.789 -5.56,5.84 -16.65,8.75 -33.3,8.75 v 18.215 h 148.21 v -18.215 c -16.69,0 -28.09,-1.531 -34.25,-4.57 -6.07,-3.067 -9.12,-8.305 -9.12,-15.75 0,-5.278 5.21,-20.762 15.55,-46.446 l 66.09,-174.164 100.66,259.145 h 15.35 l 97.55,-259.145 71.52,184.563 c 7.68,19.601 11.49,31.34 11.49,35.328 0,12.976 -13.31,19.984 -40,21.039 v 18.215 h 105.41 v -18.215 c -12.71,-0.273 -22.7,-2.719 -29.91,-7.352 -7.32,-4.613 -13.95,-15.031 -20.04,-31.14 l -8.69,-23.047 -100.99,-257.887" /><path
             id="path40"
             style="fill:#211d1d;fill-opacity:1;fill-rule:nonzero;stroke:none"
             d="m 5889.53,695.473 -43.34,-17.422 c -68.29,-27.754 -102.48,-62.61 -102.48,-104.633 0,-16.637 4.36,-30.063 13.08,-40.203 8.78,-10.207 20.16,-15.266 34.18,-15.266 12.49,0 26.91,4.063 43.33,12.25 16.39,8.199 34.82,20.5 55.23,36.883 z m 114.68,-138.692 h 14.51 c -2.42,-45.168 -24.49,-67.793 -66.36,-67.793 -17.94,0 -32.07,4.774 -42.47,14.27 -10.46,9.519 -17.2,23.66 -20.36,42.43 -26.46,-18.77 -50.62,-32.911 -72.45,-42.43 -21.88,-9.496 -41.36,-14.27 -58.58,-14.27 -22,0 -40.89,6.352 -56.76,19.032 -15.89,12.683 -23.84,29.468 -23.84,50.355 0,27.188 13.35,50.965 39.9,71.328 26.63,20.348 63.37,40.152 110.17,59.445 l 61.56,24.95 v 15.855 c 0,22.453 -1.48,38.703 -4.38,48.75 -2.92,10.039 -10.47,19.024 -22.63,26.942 -12.23,7.921 -28.22,11.898 -48.09,11.898 -39.75,0 -61.86,-13.23 -66.36,-39.633 -4.23,-26.949 -15.36,-40.437 -33.3,-40.437 -16.1,0 -24.22,7.668 -24.22,22.996 0,15.039 10.73,31.234 32.14,48.551 21.42,17.285 54.66,25.949 99.87,25.949 33.57,0 59.55,-5.278 78.08,-15.848 18.47,-10.578 30.7,-22.594 36.66,-36.082 5.9,-13.465 8.88,-34.066 8.88,-61.789 V 590.066 c 0,-30.664 1.59,-50.359 4.77,-59.082 3.19,-8.711 10.11,-13.035 20.68,-13.035 17.5,0 28.37,12.949 32.58,38.832" /><path
             id="path42"
             style="fill:#211d1d;fill-opacity:1;fill-rule:nonzero;stroke:none"
             d="m 6355.45,804.07 h -97.89 V 607.914 c 0,-30.117 1.32,-50.402 3.94,-60.84 2.69,-10.414 8.31,-18.832 16.84,-25.176 8.63,-6.335 17.75,-9.507 27.56,-9.507 19.02,0 35.52,10.828 49.55,32.5 l 12.69,-7.559 c -8.23,-17.426 -20.31,-30.551 -36.28,-39.418 -16.01,-8.816 -32.16,-13.25 -48.57,-13.25 -18.98,0 -35.67,5.582 -50.1,16.848 -14.4,11.191 -23.35,24.359 -26.97,39.426 -3.53,15.05 -5.33,41.468 -5.33,79.234 V 804.07 h -46.97 v 18.016 c 21.61,0.504 41,9.652 58.16,27.348 17.14,17.699 28.07,42.546 32.77,74.531 h 12.71 V 822.273 h 97.89 V 804.07" /><path
             id="path44"
             style="fill:#211d1d;fill-opacity:1;fill-rule:nonzero;stroke:none"
             d="m 6737.72,727.977 c 0.8,6.07 1.24,11.488 1.24,16.246 0,23.23 -6.89,41.293 -20.52,54.07 -13.62,12.832 -30.38,19.25 -50.26,19.25 -48.19,0 -76.92,-29.867 -86.19,-89.566 z m 69.38,-16.258 h -226.69 c -1.04,-15.547 -1.57,-27.153 -1.57,-34.789 0,-56.961 8.91,-99.758 26.76,-128.399 17.86,-28.582 44.57,-42.914 80.05,-42.914 48.23,0 82.36,21.578 102.52,64.653 h 18.93 c -8.54,-26.954 -25.32,-48.055 -50.39,-63.204 -25.19,-15.23 -52.53,-22.824 -82.18,-22.824 -27.5,0 -53.47,6.969 -77.96,20.805 -24.46,13.891 -44.53,33.508 -60.1,58.875 -15.64,25.363 -23.4,56.133 -23.4,92.316 0,51.282 15.02,93.879 45.23,127.797 30.17,33.977 67.84,50.934 113.07,50.934 42.57,0 75.53,-13.012 98.8,-38.938 23.25,-26 35.6,-54.093 36.93,-84.312" /><path
             id="path46"
             style="fill:#211d1d;fill-opacity:1;fill-rule:nonzero;stroke:none"
             d="m 7086.35,752.156 c 8.94,23.5 23.56,43.176 43.79,59.043 20.16,15.836 39.91,23.77 59.25,23.77 17.41,0 31.16,-5.43 41.19,-16.239 10.05,-10.832 15.06,-21.929 15.06,-33.289 0,-7.656 -2.6,-14.265 -7.72,-19.808 -5.16,-5.563 -11.4,-8.344 -18.85,-8.344 -13.18,0 -23.23,9.781 -30.08,29.328 -4.74,13.223 -11.85,19.824 -21.41,19.824 -11.36,0 -24.98,-7.703 -40.81,-23.199 -15.87,-15.41 -25.98,-31.48 -30.52,-48.137 -4.45,-16.66 -6.73,-39.496 -6.73,-68.562 v -57.84 c 0,-34.609 0.44,-56.43 1.37,-65.387 0.94,-8.988 4.72,-15.867 11.41,-20.628 6.66,-4.739 18.42,-7.125 35.49,-7.125 h 11.15 v -18.227 h -172.33 v 18.227 h 8.28 c 15.84,0 27.18,2.167 33.85,6.554 6.77,4.324 10.78,10.473 12.12,18.383 1.31,7.934 2,30.668 2,68.203 v 91.539 c 0,34.863 -0.46,56.727 -1.43,65.559 -0.87,8.863 -4.66,15.75 -11.25,20.613 -6.61,4.914 -18.39,7.344 -35.29,7.344 h -8.28 v 17.832 c 24.72,2.906 57.06,10.683 97.06,23.379 7.66,-20.871 11.87,-48.481 12.68,-82.813" /><path
             id="path48"
             style="fill:#fbc608;fill-opacity:1;fill-rule:nonzero;stroke:none"
             d="m 556.277,368.023 c 0,0 65.481,-114.3 79.188,-140.515 18.129,-34.703 -6.594,-49.559 -6.594,-49.559 0,0 -32.98,-16.578 -49.504,13.18 -13.965,25.309 -59.629,105.777 -75.863,130.613 -20.883,31.949 -29.656,42.981 -57.707,42.981 -37.945,0 -13.711,0 -66.539,0 h -4.387 c -53.117,0 -28.773,0 -67.008,0 -28.277,0 -37.136,-11.032 -58.218,-42.981 -16.348,-24.836 -62.297,-105.304 -76.434,-130.613 -16.637,-29.758 -49.883,-13.18 -49.883,-13.18 0,0 -24.9178,14.856 -6.621,49.559 13.82,26.215 79.758,140.515 79.758,140.515 0,0 16.609,25.34 16.609,46.262 v 58.465 c 0,6.699 0,11.016 0,11.016 v 58.242 c 0,20.894 -16.609,46.172 -16.609,46.172 0,0 -65.938,114.023 -79.758,140.172 -18.2968,34.628 6.621,49.461 6.621,49.461 0,0 33.246,16.503 49.883,-13.18 14.137,-25.231 60.086,-105.539 76.434,-130.289 21.082,-31.891 29.941,-42.836 58.218,-42.836 38.235,0 13.891,0 67.008,0 h 4.387 c 52.828,0 28.594,0 66.539,0 28.051,0 36.824,10.945 57.707,42.836 16.234,24.75 61.898,105.058 75.863,130.289 16.524,29.683 49.504,13.18 49.504,13.18 0,0 24.723,-14.833 6.594,-49.461 -13.707,-26.149 -79.188,-140.172 -79.188,-140.172 0,0 -16.492,-25.278 -16.492,-46.172 v -58.242 c 0,-6.727 0,-11.016 0,-11.016 v -58.465 c 0,-20.922 16.492,-46.262 16.492,-46.262 z M 308.414,971.852 h 195.602 c 16.726,0 30.297,-13.539 30.297,-30.231 0,-16.703 -13.571,-30.215 -30.297,-30.215 H 308.414 c -16.723,0 -30.258,13.512 -30.258,30.215 0,16.692 13.535,30.231 30.258,30.231 z m 421.559,-63.774 c -4.938,9.91 -36.828,73.113 -36.828,73.113 0,0 12.136,7.168 17.668,9.891 5.484,2.738 9.613,6.227 2.121,20.348 -8.055,15.22 -15.946,10.78 -15.946,10.78 0,0 -10.636,-5.89 -22.515,-11.89 -19.789,29.16 -47.297,31.97 -55.528,31.89 -5.476,-0.02 -32.437,0 -40.668,0 -8.257,0 -15.918,-1.09 -19.273,-5.51 -3.27,-4.37 -10.957,-8.24 -20.277,-8.24 -9.383,0 -278.7,0 -278.7,0 -2.75,-0.23 -3.3,1.67 -4.988,2.76 -18.703,10.44 -39.266,0.26 -43.715,-4.69 -4.355,-4.93 -21.969,-26.38 -32.351,-38.171 -10.5,-11.816 -19.563,-14.054 -26.676,-16.25 4.359,5.797 1.094,11.301 1.094,11.301 l -4.161,8.215 5.793,15.675 5.192,2.74 -3.016,7.19 c 0,0 -3.297,-1.42 -9.375,-4.42 -5.992,-3.01 -5.992,-5.77 -5.992,-5.77 -2.727,-9.892 -9.926,-10.45 -9.926,-10.45 0,0 -15.945,30.21 -18.101,34.09 -2.231,3.84 -6.59,15.95 -59.9417,-12.63 C 0.542969,989.434 13.1914,978.453 13.1914,978.453 l 18.1563,-35.137 -5.5313,-4.445 13.2734,-26.359 c 0,0 -3.3554,-1.649 -14.9414,-9.375 C 12.6523,895.461 0,887.758 0,866.895 V 99.5195 C 0,41.7813 16.5234,15.4297 80.8242,15.4297 H 667.906 c 37.887,0 74.199,19.7891 74.199,85.7113 v 758.593 c 0,37.903 -7.199,38.465 -12.132,48.344 z M 460.629,538.734 H 295.762 c -14.571,0 -26.414,-11.816 -26.414,-26.386 v -71.489 c 0,-14.582 11.843,-26.398 26.414,-26.398 h 164.867 c 14.566,0 26.383,11.816 26.383,26.398 v 71.489 c 0,14.57 -11.817,26.386 -26.383,26.386" /><path
             id="path50"
             style="fill:#231f20;fill-opacity:1;fill-rule:nonzero;stroke:none"
             d="m 1358.05,33.1289 20.63,28.4375 C 1392.75,46.25 1415.56,32.5 1444.63,32.5 c 30.01,0 41.58,14.6953 41.58,28.7617 0,43.7583 -121.29,16.5625 -121.29,93.1443 0,34.699 30.01,61.266 75.96,61.266 32.2,0 58.77,-10.625 77.84,-29.383 l -20.63,-27.191 c -16.57,16.562 -38.76,24.07 -60.64,24.07 -21.26,0 -35.01,-10.629 -35.01,-25.945 0,-39.082 121.28,-15.008 121.28,-92.5199 C 1523.72,30 1499.03,0 1443.07,0 c -38.45,0 -66.26,13.7383 -85.02,33.1289" /><path
             id="path52"
             style="fill:#231f20;fill-opacity:1;fill-rule:nonzero;stroke:none"
             d="M 1588.39,86.2617 V 212.23 h 37.2 V 87.2031 c 0,-33.1289 18.45,-54.7031 53.14,-54.7031 34.69,0 53.14,21.5742 53.14,54.7031 V 212.23 h 37.2 V 86.2617 C 1769.07,34.6914 1739.38,0 1678.73,0 c -60.33,0 -90.34,34.6914 -90.34,86.2617" /><path
             id="path54"
             style="fill:#231f20;fill-opacity:1;fill-rule:nonzero;stroke:none"
             d="m 1966.89,146.902 c 0,20.004 -14.69,33.145 -35.32,33.145 h -50.33 V 114.09 h 50.33 c 20.63,0 35.32,13.125 35.32,32.812 z M 1844.67,3.73828 V 212.23 h 91.9 c 43.77,0 67.83,-29.687 67.83,-65.328 0,-35.324 -24.38,-65.0114 -67.83,-65.0114 h -55.33 V 3.73828 h -36.57" /><path
             id="path56"
             style="fill:#231f20;fill-opacity:1;fill-rule:nonzero;stroke:none"
             d="m 2188.48,146.902 c 0,20.004 -14.69,33.145 -35.32,33.145 h -50.33 V 114.09 h 50.33 c 20.63,0 35.32,13.125 35.32,32.812 z M 2066.25,3.73828 V 212.23 h 91.91 c 43.76,0 67.83,-29.687 67.83,-65.328 0,-35.324 -24.38,-65.0114 -67.83,-65.0114 h -55.33 V 3.73828 h -36.58" /><path
             id="path58"
             style="fill:#231f20;fill-opacity:1;fill-rule:nonzero;stroke:none"
             d="m 2454.46,107.836 c 0,43.133 -27.2,75.332 -69.08,75.332 -42.21,0 -69.09,-32.199 -69.09,-75.332 0,-42.8282 26.88,-75.336 69.09,-75.336 41.88,0 69.08,32.5078 69.08,75.336 z m -175.67,0 c 0,62.207 44.07,107.836 106.59,107.836 62.2,0 106.59,-45.629 106.59,-107.836 C 2491.97,45.625 2447.58,0 2385.38,0 2322.86,0 2278.79,45.625 2278.79,107.836" /><path
             id="path60"
             style="fill:#231f20;fill-opacity:1;fill-rule:nonzero;stroke:none"
             d="m 2680.73,147.223 c 0,20.004 -15.01,32.824 -35.64,32.824 h -50.32 v -66.274 h 50.32 c 20.63,0 35.64,13.122 35.64,33.45 z M 2677.29,3.73828 2631.34,81.5703 h -36.57 V 3.73828 h -36.58 V 212.23 h 91.59 c 41.26,0 68.46,-26.566 68.46,-65.328 0,-36.875 -24.38,-57.1989 -49.71,-61.2653 L 2719.8,3.73828 h -42.51" /><path
             id="path62"
             style="fill:#231f20;fill-opacity:1;fill-rule:nonzero;stroke:none"
             d="M 2832.62,3.73828 V 180.047 h -63.14 v 32.183 h 162.85 v -32.183 h -63.14 V 3.73828 h -36.57" /><path
             id="path64"
             style="fill:#231f20;fill-opacity:1;fill-rule:nonzero;stroke:none"
             d="M 2994.5,3.73828 V 212.23 h 142.85 v -32.183 h -106.28 v -53.774 h 104.1 V 94.0859 h -104.1 V 35.9414 h 106.28 V 3.73828 H 2994.5" /><path
             id="path66"
             style="fill:#231f20;fill-opacity:1;fill-rule:nonzero;stroke:none"
             d="m 3328.62,147.223 c 0,20.004 -15,32.824 -35.63,32.824 h -50.33 v -66.274 h 50.33 c 20.63,0 35.63,13.122 35.63,33.45 z M 3325.18,3.73828 3279.24,81.5703 h -36.58 V 3.73828 h -36.57 V 212.23 h 91.59 c 41.26,0 68.45,-26.566 68.45,-65.328 0,-36.875 -24.37,-57.1989 -49.69,-61.2653 L 3367.7,3.73828 h -42.52" /></g></g></g></g></svg>